# xmcd
#
# Track frame offsets:
# 150
# 16843
# 24577
# 42487
# 59223
# 70889
# 79643
# 93709
# 114585
# 133772
# 151109
# 166885
# 184961
# 206205
# 224395
# 232462
# 248453
# 267454
#
# Disc length: 3710 seconds
#
#
# Revision: 0
# Processed by: cddbd v1.5.1PL0 Copyright (c) Steve Scherf et al.
# Submitted via: FreeRIP 2.941 
#
DISCID=0d0e7c12
DTITLE=ras kass - see what i see - vol. 3
DYEAR=1479
DGENRE=hip hop
TTITLE0=2 Way Anthem
TTITLE1=Horsemen Enforcements feat. HRSMN
TTITLE2=One On One - Romeo feat. Punchline
TTITLE3=Revelationz feat. HRSMN
TTITLE4=What Type feat. Glocc
TTITLE5=Wanksta Freestyle feat. HRSMN
TTITLE6=So Many Days
TTITLE7=Nothin' Nice feat. DBA and Flip
TTITLE8=Come Widdit (The Fredwreck Remix)
TTITLE9=Anything Goes (Remix)
TTITLE10=Streetsweepers Freestyle feat. Billy Bathgate and T-Rex
TTITLE11=Play The Cards I Was Given feat. Mr. Mike
TTITLE12=Got You Too Hot feat. Domingo and Hurricane G
TTITLE13=Verbal Murder
TTITLE14=Wake Up Show Freestyle Pt. 1 feat. Canibus
TTITLE15=Wake Up Show Freestyle Pt. 2 feat. Canibus
TTITLE16=Whut Part Of The Game feat. Killah Priest
TTITLE17=Heat Of The Assassin feat. Phenom and Krondon
EXTD=
EXTT0=
EXTT1=
EXTT2=
EXTT3=
EXTT4=
EXTT5=
EXTT6=
EXTT7=
EXTT8=
EXTT9=
EXTT10=
EXTT11=
EXTT12=
EXTT13=
EXTT14=
EXTT15=
EXTT16=
EXTT17=
PLAYORDER=
